<?xml version="1.0" standalone="no"?>
<!DOCTYPE svg PUBLIC "-//W3C//DTD SVG 20010904//EN"
 "http://www.w3.org/TR/2001/REC-SVG-20010904/DTD/svg10.dtd">
<svg version="1.0" xmlns="http://www.w3.org/2000/svg"
 width="310.000000pt" height="310.000000pt" viewBox="0 0 310.000000 310.000000"
 preserveAspectRatio="xMidYMid meet">
<metadata>
Created by potrace 1.16, written by Peter Selinger 2001-2019
</metadata>
<g transform="translate(0.000000,310.000000) scale(0.100000,-0.100000)"
fill="#000000" stroke="none">
<path d="M200 3076 c-65 -34 -125 -92 -165 -160 l-35 -60 0 -1302 0 -1301 21
-49 c28 -63 120 -155 183 -183 l49 -21 1305 0 c718 0 1302 4 1298 7 -9 9 54
34 67 26 6 -4 7 -1 2 7 -6 10 -4 12 8 7 9 -3 19 -1 23 5 5 7 2 8 -7 4 -8 -5 0
4 18 18 18 15 44 41 59 59 14 18 23 26 18 18 -4 -9 -3 -12 4 -7 6 4 8 14 5 23
-5 12 -3 14 7 8 8 -5 11 -4 7 2 -8 13 17 76 26 67 4 -4 7 584 7 1306 0 722 -3
1310 -7 1306 -9 -9 -34 54 -26 67 4 6 1 7 -7 2 -10 -6 -12 -4 -7 8 3 9 1 19
-5 23 -7 5 -8 2 -4 -7 5 -8 -4 0 -18 18 -15 18 -41 44 -59 59 -18 14 -26 23
-18 18 9 -4 12 -3 7 4 -4 6 -14 8 -23 5 -12 -5 -14 -3 -8 7 5 8 4 11 -2 7 -13
-8 -76 17 -67 26 4 3 -582 6 -1302 6 l-1309 0 -45 -23z m1148 -862 c59 -12
195 -67 252 -101 3 -2 5 23 5 54 l0 58 140 0 140 0 3 -153 3 -153 -66 -82
c-36 -45 -98 -132 -138 -194 -39 -62 -75 -113 -78 -113 -4 0 -9 31 -11 68 -9
128 -89 245 -209 309 -50 26 -62 28 -169 28 -105 0 -119 -3 -165 -27 -157 -82
-246 -253 -215 -413 33 -168 158 -288 333 -317 124 -20 259 38 355 153 29 35
108 147 177 249 68 102 136 201 151 220 51 64 189 195 255 243 125 89 300 161
442 181 l47 7 0 -144 0 -144 -60 -7 c-143 -16 -265 -80 -385 -201 -92 -91
-148 -169 -268 -370 -165 -278 -276 -378 -495 -447 -93 -30 -269 -29 -360 1
-206 68 -360 210 -435 401 -71 181 -61 356 29 540 38 76 62 109 124 170 163
162 381 229 598 184z m922 -1 c0 -12 -24 -31 -68 -55 -37 -20 -98 -59 -135
-87 -37 -28 -70 -51 -72 -51 -3 0 -5 47 -5 105 l0 105 140 0 c127 0 140 -2
140 -17z m0 -878 l0 -446 -137 3 -138 3 -3 273 -2 273 51 77 c29 42 60 88 71
102 19 26 150 160 155 160 2 0 3 -200 3 -445z m-382 -262 l-3 -178 -140 0
-140 0 -3 26 c-2 21 7 35 50 70 73 59 131 123 180 197 23 34 46 62 50 62 5 0
7 -80 6 -177z"/>
</g>
</svg>
