<?xml version="1.0" standalone="no"?>
<!DOCTYPE svg PUBLIC "-//W3C//DTD SVG 20010904//EN"
 "http://www.w3.org/TR/2001/REC-SVG-20010904/DTD/svg10.dtd">
<svg version="1.0" xmlns="http://www.w3.org/2000/svg"
 width="512.000000pt" height="512.000000pt" viewBox="0 0 512.000000 512.000000"
 preserveAspectRatio="xMidYMid meet">
<metadata>
Created by potrace 1.16, written by Peter Selinger 2001-2019
</metadata>
<g transform="translate(0.000000,512.000000) scale(0.100000,-0.100000)"
fill="#000000" stroke="none">
<path d="M1655 3891 c-6 -4 -39 -14 -75 -20 -86 -16 -253 -72 -332 -112 -172
-86 -354 -239 -474 -398 -113 -151 -219 -395 -240 -551 -4 -27 -10 -50 -15
-50 -5 0 -9 -81 -9 -180 0 -113 4 -180 10 -180 6 0 10 -10 10 -22 0 -58 54
-239 101 -337 70 -148 148 -260 256 -372 189 -195 408 -317 668 -374 44 -9 88
-21 98 -26 21 -11 347 -11 347 0 0 5 22 11 50 15 143 19 357 103 502 199 231
150 377 326 663 798 65 107 153 247 196 312 44 65 79 121 79 124 0 11 107 137
173 205 213 217 484 356 777 397 47 7 95 14 108 17 l22 4 0 279 0 279 -67 1
c-37 0 -70 -3 -73 -7 -3 -4 -48 -16 -100 -26 -371 -73 -770 -301 -1065 -607
-151 -157 -216 -243 -465 -614 -270 -403 -336 -492 -451 -605 -99 -98 -199
-157 -323 -189 -156 -41 -277 -37 -429 15 -341 116 -562 477 -503 821 30 175
96 304 215 424 292 291 735 299 1036 18 154 -144 245 -357 245 -570 0 -33 4
-59 9 -59 5 0 71 96 147 212 154 237 252 371 349 483 l65 74 -2 313 -3 313
-282 3 -283 2 0 -120 0 -120 -52 34 c-129 82 -278 141 -434 173 -49 10 -90 21
-92 25 -5 10 -346 10 -357 -1z"/>
<path d="M3342 3683 c2 -156 6 -217 15 -220 6 -2 24 10 39 26 15 17 33 31 41
31 7 0 13 4 13 8 0 22 254 189 398 261 60 31 62 32 62 71 l0 40 -285 0 -285 0
2 -217z"/>
<path d="M3825 2962 c-134 -111 -278 -287 -413 -503 l-72 -116 2 -539 3 -539
283 -3 282 -2 0 880 c0 484 -3 880 -7 880 -5 0 -39 -26 -78 -58z"/>
<path d="M3057 1871 c-87 -129 -244 -317 -276 -329 -9 -3 -24 -16 -34 -29 -10
-13 -24 -23 -30 -23 -7 0 -18 -9 -25 -20 -7 -11 -19 -20 -27 -20 -8 0 -15 -4
-15 -10 0 -5 -7 -10 -15 -10 -8 0 -15 -4 -15 -10 0 -5 -7 -10 -15 -10 -12 0
-15 -15 -15 -75 l0 -75 283 2 282 3 3 368 c1 202 -1 367 -6 367 -5 0 -47 -58
-95 -129z"/>
</g>
</svg>
